<svg xmlns="http://www.w3.org/2000/svg" viewBox="0 0 256 256"><circle fill="#2775CA" cx="128" cy="128" r="128"></circle><path fill="#FFF" d="M167.7 75.9c25.7 10.6 41.8 35.1 41.8 63.7 0 28.6-16.1 53.1-41.8 63.7v-12.3c17.6-9.5 29-27.7 29-51.4 0-23.7-11.4-41.9-29-51.4V75.9zm-79.4 0v12.3c-17.6 9.5-29 27.7-29 51.4 0 23.7 11.4 41.9 29 51.4v12.3c-25.7-10.6-41.8-35.1-41.8-63.7 0-28.6 16.1-53.1 41.8-63.7z"></path><path fill="#FFF" d="M150.8 164.4c0-11.9-7.1-17.1-21.3-21.1-10-2.6-12.4-4.2-12.4-8.3 0-3.6 2.8-6.6 8.4-6.6 5 0 9.8 1.8 14.9 5.3l6.5-10c-5.6-4-12-6.5-19.3-7.1v-11.4h-9.3v11c-10.9 1.8-17.8 9.1-17.8 18.4 0 11.7 7.1 17 21.7 21.1 9.4 2.3 12 4.3 12 8.4 0 3.8-3.3 7.2-9.5 7.2-6.6 0-12.8-2.3-18.7-7l-6.7 9.8c6.6 5.3 14.2 8.3 22.3 9.1v11h9.3v-11c11.5-1.7 19.2-9.2 19.2-18.8z"></path></svg>
